# xmcd
#
# Track frame offsets: 
#        150
#        18561
#        41353
#        70024
#        86385
#        114953
#        131586
#        159961
#        187809
#        208345
#        223792
#
# Disc length: 3448 seconds
#
# Revision: 0
# Processed by: cddbd v1.5.2PL0 Copyright (c) Steve Scherf et al.
# Submitted via: ExactAudioCopy v0.99pb5
#
DISCID=8d0d760b
DTITLE=Robin Trower - The Playful Heart
DYEAR=2010
DGENRE=Rock
TTITLE0=The Playful Heart
TTITLE1=Don't Look Back
TTITLE2=The Turning
TTITLE3=Dressed in Gold
TTITLE4=Find Me
TTITLE5=Song for Those Who Fell
TTITLE6=Maybe I Can Be a Friend
TTITLE7=Prince of Shattered Dreams
TTITLE8=Camille
TTITLE9=Not Inside - Outside
TTITLE10=And We Shall Call It Love
EXTD=
EXTT0=
EXTT1=
EXTT2=
EXTT3=
EXTT4=
EXTT5=
EXTT6=
EXTT7=
EXTT8=
EXTT9=
EXTT10=
PLAYORDER=
